<!--?xml version="1.0" encoding="utf-8"?-->
<!-- Generator: Adobe Illustrator 18.1.1, SVG Export Plug-In . SVG Version: 6.00 Build 0)  -->

<svg version="1.1" id="_x32_" xmlns="http://www.w3.org/2000/svg" xmlns:xlink="http://www.w3.org/1999/xlink" x="0px" y="0px" viewBox="0 0 512 512" style="width: 256px; height: 256px; opacity: 1;" xml:space="preserve">
<style type="text/css">
	.st0{fill:#4B4B4B;}
</style>
<g>
	<path class="st0" d="M142.162,200.464c-15.719,0-28.478,12.735-28.478,28.461s12.759,28.47,28.478,28.47
		c15.718,0,28.445-12.744,28.445-28.47S157.881,200.464,142.162,200.464z" style="fill: rgb(75, 75, 75);"></path>
	<path class="st0" d="M255.992,200.464c-15.718,0-28.462,12.735-28.462,28.461s12.743,28.47,28.462,28.47
		c15.718,0,28.462-12.744,28.462-28.47S271.71,200.464,255.992,200.464z" style="fill: rgb(75, 75, 75);"></path>
	<path class="st0" d="M369.822,200.464c-15.718,0-28.462,12.735-28.462,28.461s12.743,28.47,28.462,28.47
		c15.734,0,28.461-12.744,28.461-28.47S385.556,200.464,369.822,200.464z" style="fill: rgb(75, 75, 75);"></path>
	<path class="st0" d="M511.968,225.99c-0.453-44.099-17.724-85.466-48.627-116.481C432.34,78.346,391.038,61.18,346.988,61.18
		H164.98C74.016,61.197,0.016,135.196,0,226.136c0.016,90.948,74.016,164.963,164.98,164.987h149.892
		c2.377,0,3.639,1.011,4.286,1.86c1.536,2.053,0.857,4.932,0.614,5.748c-0.954,3.388-3.364,8.102-8.07,15.751
		c-3.638,5.999-6.986,11.053-7.713,12.129c-5.078,7.616-6.824,14.069-4.932,18.176c1.439,3.097,4.997,5.005,10.608,5.668
		c1.876,0.218,4.496,0.364,7.002,0.364c1.294,0,2.572-0.041,3.671-0.129c11.611-0.994,27.298-2.838,45.636-8.344
		c26.731-8.037,65.057-25.074,95.831-60.618c32.925-37.914,50.277-90.494,50.196-152.067L511.968,225.99z M460.915,329.13
		c-16.349,32.553-41.981,57.376-76.183,73.798c-11.563,5.522-23.966,9.929-36.838,13.099l-3.331,0.816l2.167-4.706
		c0.792-1.698,1.585-3.387,2.199-5.158c1.196-3.639,2.377-7.633,2.442-12.824c0-4.318-0.954-8.685-2.781-12.622
		c-2.894-6.355-8.473-11.95-15.298-15.346c-6.97-3.492-15.184-5.191-25.097-5.191H164.98c-35.981,0-69.843-14.029-95.346-39.498
		c-25.47-25.487-39.507-59.357-39.507-95.362c0-35.981,14.037-69.844,39.507-95.346c25.502-25.462,59.365-39.491,95.346-39.491
		h182.008c35.884,0.008,69.634,14.029,95.023,39.474c25.308,25.438,39.458,59.364,39.846,95.516l0.016,3.372
		C481.857,267.947,474.806,301.413,460.915,329.13z" style="fill: rgb(75, 75, 75);"></path>
</g>
</svg>
